<?xml version="1.0" encoding="UTF-8"?>
<svg id="Layer_2" data-name="Layer 2" xmlns="http://www.w3.org/2000/svg" viewBox="0 0 334 333.37">
  <defs>
    <style>
      .cls-1 {
        fill: #faaf3b;
      }

      .cls-2 {
        fill: #fff;
      }

      .cls-3 {
        fill: #662d90;
      }
    </style>
  </defs>
  <g id="Layer_1-2" data-name="Layer 1">
    <g>
      <rect class="cls-2" y="8.99" width="334" height="320"/>
      <g>
        <path class="cls-3" d="M334,175.79l-65.92,41.02v59.73h-67.69v-98.64l-65.62,41.84v56.8H66.62v-100.75L0,219.74v92.2c0,11.84,9.59,21.43,21.43,21.43H312.57c11.84,0,21.43-9.59,21.43-21.43V175.79Z"/>
        <g>
          <path class="cls-3" d="M0,157.58l65.92-41.02V56.83h67.69v98.64l65.62-41.84V56.83h68.16v100.75l66.62-43.95V21.43c0-11.84-9.59-21.43-21.43-21.43H21.43C9.59,0,0,9.59,0,21.43V157.58Z"/>
          <polygon class="cls-1" points="294.2 78.14 282.11 78.14 282.11 38.22 239.69 38.22 239.69 26.14 294.2 26.14 294.2 78.14"/>
        </g>
      </g>
    </g>
  </g>
</svg>